<svg width="512" height="512" viewBox="0 0 512 512" fill="none" xmlns="http://www.w3.org/2000/svg">
  <rect width="512" height="512" rx="112" fill="#0b0f19"/>
  <g transform="translate(96, 96) scale(13.333)">
    <defs>
      <linearGradient id="icon-gradient" x1="0%" y1="0%" x2="100%" y2="100%">
        <stop offset="0%" stop-color="#06b6d4" />
        <stop offset="50%" stop-color="#14b8a6" />
        <stop offset="100%" stop-color="#10b981" />
      </linearGradient>
    </defs>
    <!-- Geometric abstract iris/spark logo -->
    <path d="M12 2C6.48 2 2 6.48 2 12s4.48 10 10 10 10-4.48 10-10S17.52 2 12 2zm0 18c-4.41 0-8-3.59-8-8s3.59-8 8-8 8 3.59 8 8-3.59 8-8 8z" fill="url(#icon-gradient)" opacity="0.3"/>
    <path d="M12 6l-2 4-4 2 4 2 2 4 2-4 4-2-4-2-2-4z" fill="url(#icon-gradient)" />
  </g>
</svg>
